<svg width="70" height="231" viewBox="0 0 70 231" fill="none" xmlns="http://www.w3.org/2000/svg">
<path d="M1.90967 0V50.8671" stroke="black" stroke-width="3"/>
<path opacity="0.6" d="M1.90967 11.5693L1.90967 230.468" stroke="black"/>
<path d="M50.7557 34.8591C54.7869 34.8591 57.1477 31.5693 57.1477 25.8506C57.1477 20.1744 54.7528 16.8762 50.7557 16.8762C46.75 16.8762 44.3636 20.1659 44.3551 25.8506C44.3551 31.5608 46.7159 34.8506 50.7557 34.8591ZM50.7557 32.5835C48.3949 32.5835 46.9716 30.2142 46.9716 25.8506C46.9801 21.504 48.4034 19.1091 50.7557 19.1091C53.0994 19.1091 54.5312 21.504 54.5312 25.8506C54.5312 30.2142 53.108 32.5835 50.7557 32.5835ZM66.7933 17.1148H64.228L59.8729 19.9614V22.4841L64.049 19.7568H64.1513V34.5693H66.7933V17.1148Z" fill="#2D2B2C"/>
<path opacity="0.6" d="M56.5241 119.738C58.8757 119.738 60.2528 117.819 60.2528 114.483C60.2528 111.172 58.8558 109.248 56.5241 109.248C54.1875 109.248 52.7955 111.167 52.7905 114.483C52.7905 117.814 54.1676 119.733 56.5241 119.738ZM56.5241 118.411C55.147 118.411 54.3168 117.029 54.3168 114.483C54.3217 111.948 55.152 110.551 56.5241 110.551C57.8913 110.551 58.7266 111.948 58.7266 114.483C58.7266 117.029 57.8963 118.411 56.5241 118.411ZM62.0165 119.569H68.7182V118.252H64.1344V118.177L66.1578 116.059C68.0222 114.175 68.5542 113.275 68.5542 112.137C68.5542 110.501 67.2218 109.248 65.3027 109.248C63.3986 109.248 62.0066 110.481 62.0066 112.341H63.4732C63.4682 111.247 64.1742 110.531 65.2729 110.531C66.307 110.531 67.0925 111.167 67.0925 112.182C67.0925 113.081 66.5556 113.728 65.4618 114.886L62.0165 118.456V119.569Z" fill="black"/>
<path opacity="0.6" d="M55.5241 201.738C57.8757 201.738 59.2528 199.819 59.2528 196.483C59.2528 193.172 57.8558 191.248 55.5241 191.248C53.1875 191.248 51.7955 193.167 51.7905 196.483C51.7905 199.814 53.1676 201.733 55.5241 201.738ZM55.5241 200.411C54.147 200.411 53.3168 199.029 53.3168 196.483C53.3217 193.948 54.152 192.551 55.5241 192.551C56.8913 192.551 57.7266 193.948 57.7266 196.483C57.7266 199.029 56.8963 200.411 55.5241 200.411ZM64.5613 201.709C66.6394 201.709 68.1657 200.466 68.1607 198.775C68.1657 197.488 67.3851 196.563 66.0328 196.354V196.275C67.0968 196.001 67.7878 195.166 67.7828 194.022C67.7878 192.526 66.5598 191.248 64.601 191.248C62.7317 191.248 61.2303 192.377 61.1806 194.032H62.6671C62.7019 193.098 63.5819 192.531 64.5811 192.531C65.6202 192.531 66.3013 193.162 66.2963 194.102C66.3013 195.086 65.5108 195.733 64.3823 195.733H63.5222V196.986H64.3823C65.7942 196.986 66.6096 197.701 66.6096 198.726C66.6096 199.715 65.7495 200.386 64.5513 200.386C63.4476 200.386 62.5875 199.819 62.5279 198.915H60.9668C61.0314 200.575 62.503 201.709 64.5613 201.709Z" fill="black"/>
</svg>
